<?xml version="1.0" standalone="no"?>
<!DOCTYPE svg PUBLIC "-//W3C//DTD SVG 20010904//EN"
 "http://www.w3.org/TR/2001/REC-SVG-20010904/DTD/svg10.dtd">
<svg version="1.0" xmlns="http://www.w3.org/2000/svg"
 width="346.000000pt" height="346.000000pt" viewBox="0 0 346.000000 346.000000"
 preserveAspectRatio="xMidYMid meet">
<metadata>
Created by potrace 1.14, written by Peter Selinger 2001-2017
</metadata>
<g transform="translate(0.000000,346.000000) scale(0.100000,-0.100000)"
fill="#000000" stroke="none">
<path d="M1400 3448 c0 -5 -4 -7 -8 -4 -5 3 -31 -6 -58 -20 -126 -64 -255
-274 -250 -409 2 -63 25 -136 61 -195 23 -37 76 -148 79 -165 2 -5 10 -27 19
-49 9 -21 17 -41 17 -45 1 -25 110 -108 124 -94 3 3 6 2 6 -3 0 -16 113 -9
150 11 34 17 101 83 221 214 30 34 54 61 52 61 -2 0 7 11 19 25 12 14 23 34
25 45 2 11 5 30 6 43 4 24 4 24 45 4 38 -19 87 -20 120 -3 15 8 57 43 93 78
35 36 83 73 106 83 23 10 40 22 37 27 -3 4 -2 8 3 8 4 0 15 15 22 32 8 18 40
57 71 88 70 69 85 80 105 80 8 0 15 4 15 10 0 5 3 9 8 8 14 -5 121 62 161 101
47 46 49 52 19 45 -13 -3 -34 -6 -48 -9 -24 -3 -57 -9 -122 -21 -41 -7 -83
-12 -173 -19 -102 -7 -153 -14 -225 -30 -14 -4 -36 -8 -50 -11 -33 -8 -42 -10
-60 -16 -8 -3 -41 -13 -73 -23 -32 -10 -68 -27 -79 -37 -31 -27 -34 -22 -6 14
13 17 50 45 81 62 55 30 56 31 30 37 -16 3 -54 16 -85 27 -32 11 -58 18 -58
16 0 -3 -8 0 -19 5 -17 9 -56 19 -106 26 -11 2 -20 4 -20 5 0 1 -57 3 -127 5
-73 1 -128 -2 -128 -7z m940 -172 c0 -2 -19 -24 -42 -48 -24 -25 -59 -64 -79
-87 -19 -23 -45 -43 -57 -44 -12 -1 -22 -4 -22 -8 0 -4 -10 -9 -23 -13 -12 -3
-32 -14 -44 -25 -11 -11 -24 -17 -27 -14 -3 4 -6 -1 -6 -9 0 -8 -11 -27 -24
-41 -25 -27 -54 -30 -90 -10 -18 10 -18 11 4 41 12 17 24 48 25 69 1 21 3 41
4 45 2 14 55 57 63 52 4 -3 8 -1 8 3 0 8 62 29 112 39 10 2 23 5 30 6 7 2 15
6 18 9 3 4 23 9 45 13 32 4 68 13 103 25 1 1 2 -1 2 -3z m-1106 -346 c55 -21
69 -40 59 -80 -5 -20 -19 -24 -58 -20 -21 2 -49 35 -51 60 -1 8 -4 25 -8 38
-9 27 -10 27 58 2z m486 0 c0 -20 -46 -73 -72 -84 -34 -15 -95 -13 -112 4 -14
14 -18 50 -6 51 13 2 29 6 33 9 3 2 37 10 71 15 16 2 31 7 34 9 6 7 52 3 52
-4z"/>
<path d="M503 3407 c7 -37 123 -177 146 -177 22 0 138 -127 162 -177 15 -34
33 -56 50 -63 15 -6 39 -28 55 -48 51 -66 172 -178 181 -168 3 2 -8 28 -22 56
-26 51 -34 75 -39 113 -1 10 -13 25 -27 35 -55 38 -74 57 -120 117 -16 22 -44
58 -62 79 -44 54 -51 67 -32 60 8 -3 15 -10 15 -14 0 -7 23 -17 59 -25 8 -2
17 -8 20 -13 6 -9 56 -33 93 -45 10 -4 20 -2 23 4 4 5 10 7 14 4 10 -5 51 28
51 41 1 5 9 27 20 49 11 22 19 43 20 47 0 7 -55 2 -70 -7 -6 -3 -10 -1 -10 5
0 7 -6 8 -16 2 -21 -12 -121 3 -185 27 -29 11 -56 18 -61 15 -4 -3 -8 0 -8 6
0 6 -4 9 -9 5 -5 -3 -12 -1 -15 4 -3 4 -20 12 -38 16 -36 8 -45 11 -53 15 -3
1 -9 4 -15 5 -5 1 -11 3 -12 5 -2 1 -10 3 -18 5 -8 2 -34 10 -57 19 -31 11
-42 12 -40 3z"/>
<path d="M1723 2565 c-117 -118 -172 -158 -240 -172 -53 -11 -153 -5 -153 9 0
4 -6 8 -12 8 -26 0 -66 47 -107 125 -24 44 -44 81 -46 83 -3 3 -72 -67 -121
-123 -14 -16 -38 -55 -52 -85 -23 -49 -26 -67 -25 -160 0 -102 8 -225 16 -265
5 -22 -32 -78 -73 -110 -13 -11 -32 -27 -41 -36 -9 -9 -43 -36 -75 -59 -108
-79 -324 -310 -324 -346 0 -26 48 -108 89 -153 34 -36 49 -44 81 -47 22 -1 40
2 40 7 0 6 4 8 9 5 10 -6 60 41 62 58 2 13 -1 43 -6 74 -2 14 2 25 11 29 8 3
14 9 14 13 0 5 5 21 12 37 6 15 12 31 13 36 2 4 4 10 5 15 1 4 1 15 0 26 -1
10 3 15 8 12 6 -3 12 -3 14 1 4 10 74 43 90 43 6 0 19 6 27 14 9 8 25 16 36
18 11 1 22 5 25 8 3 3 25 18 50 32 132 76 168 162 147 349 -16 133 -29 177
-64 218 -29 35 -32 42 -18 47 34 14 69 -29 102 -126 35 -100 45 -142 44 -177
-1 -28 14 -29 56 -3 l32 19 -38 -72 c-33 -64 -37 -79 -36 -137 4 -108 27 -191
68 -242 13 -17 222 -101 282 -113 89 -19 253 -20 271 -2 4 4 19 7 34 7 15 0
30 3 34 7 3 4 12 8 19 9 7 1 43 15 80 32 62 29 68 34 61 54 -5 13 -8 33 -9 45
0 11 -3 20 -6 18 -3 -2 -14 30 -24 71 -10 41 -22 71 -26 67 -4 -5 -26 -54 -49
-110 -23 -57 -45 -103 -47 -103 -9 0 7 99 21 132 12 28 23 56 31 78 1 3 5 12
8 20 16 38 77 226 77 238 0 16 -95 109 -130 127 -23 12 -32 11 -69 -6 -50 -22
-74 -25 -48 -5 9 7 17 17 17 23 0 8 33 37 66 56 6 4 40 -15 75 -41 78 -59 188
-132 198 -132 4 0 17 -9 29 -20 12 -12 22 -17 22 -13 0 4 4 3 8 -2 4 -6 18
-18 32 -26 14 -9 32 -29 40 -45 8 -16 17 -31 20 -34 3 -3 20 -27 39 -55 39
-57 41 -59 120 -141 32 -33 62 -71 66 -84 8 -26 -12 -70 -32 -70 -7 0 -13 -4
-13 -9 0 -5 -11 -12 -25 -15 -31 -8 -72 -46 -76 -71 -5 -35 11 -76 33 -84 23
-8 48 7 48 28 0 6 3 10 8 9 4 0 14 1 22 5 42 16 70 13 90 -8 l22 -23 -32 -59
c-18 -32 -37 -64 -43 -70 -5 -7 -7 -13 -3 -13 3 0 2 -10 -3 -22 -13 -35 4 -68
34 -68 14 0 24 3 23 8 -1 4 10 26 25 49 15 24 27 47 27 53 0 5 4 10 9 10 5 0
6 -15 1 -33 -11 -53 0 -107 23 -107 16 0 56 85 64 137 8 51 25 53 18 1 -14
-105 -14 -126 0 -132 18 -6 56 29 73 67 7 15 15 51 18 80 4 29 8 53 9 55 2 2
9 -23 15 -55 18 -88 17 -85 39 -71 23 14 33 60 25 103 -4 17 -7 37 -8 45 -6
51 -41 119 -70 135 -35 20 -98 82 -114 111 -6 11 -13 42 -16 69 -10 74 -12 88
-20 112 -4 12 -8 30 -10 40 -8 37 -67 153 -103 200 -20 26 -55 64 -77 83 -74
63 -186 182 -180 191 3 5 1 9 -4 9 -5 0 -15 12 -23 28 -8 15 -16 29 -19 32 -3
3 -26 28 -52 57 -27 29 -48 49 -48 46 0 -3 -8 3 -17 13 -22 24 -94 62 -194
103 -47 20 -96 50 -130 80 l-55 49 -121 -123z"/>
<path d="M2106 1435 c-17 -13 -33 -22 -38 -19 -4 3 -8 0 -8 -7 0 -7 -3 -9 -7
-6 -3 4 -11 3 -17 -2 -23 -20 -155 -49 -218 -49 -37 0 -71 -3 -77 -6 -6 -4
-11 -3 -11 2 0 5 -18 8 -40 8 -22 -1 -40 1 -40 4 0 3 -8 6 -17 7 -19 2 -51 8
-90 17 -13 4 -33 8 -45 11 -37 8 -122 38 -136 49 -9 7 -36 -14 -99 -78 l-86
-86 27 -25 c15 -14 30 -25 33 -25 6 0 95 -72 129 -105 25 -24 134 -183 134
-196 0 -5 4 -9 9 -9 5 0 12 -8 15 -17 4 -10 15 -29 26 -43 l19 -25 27 60 c15
33 29 66 30 73 4 21 9 23 37 9 16 -7 35 -33 52 -69 37 -80 41 -78 61 27 4 17
7 36 7 44 1 20 27 -18 27 -39 0 -9 4 -20 8 -26 5 -5 19 -40 32 -79 12 -38 26
-74 30 -78 4 -4 6 23 5 60 -3 110 13 144 53 120 6 -5 12 -5 12 -1 0 3 7 1 15
-6 12 -10 18 -5 35 36 68 160 102 211 143 218 7 1 17 5 23 8 5 4 25 5 42 2 18
-3 32 -4 32 -2 0 23 -90 268 -98 268 -4 -1 -20 -12 -36 -25z"/>
<path d="M1072 1147 c-31 -39 -64 -80 -72 -90 -8 -11 -21 -25 -27 -32 -7 -8
-13 -18 -13 -24 0 -6 -4 -11 -9 -11 -11 0 -29 -48 -29 -75 0 -11 20 -81 45
-155 51 -153 55 -164 54 -168 -1 -1 5 -18 13 -37 9 -20 15 -38 16 -40 0 -3 0
-6 1 -7 1 -5 7 -32 12 -58 3 -14 6 -29 8 -35 9 -28 -13 -74 -47 -101 -21 -16
-55 -44 -76 -62 -20 -19 -43 -35 -50 -36 -83 -17 -122 -89 -50 -92 17 -1 32 3
32 9 0 6 3 7 7 4 3 -4 15 0 25 10 22 19 24 8 3 -13 -21 -21 -19 -41 4 -47 13
-3 36 7 62 26 40 29 41 30 27 6 -8 -13 -14 -28 -13 -34 5 -27 18 -43 33 -40 9
2 22 4 28 4 5 1 38 19 72 41 33 22 65 40 69 40 13 0 65 48 84 77 12 18 15 38
12 72 -8 72 -7 120 2 196 10 79 12 247 4 285 -12 54 -33 110 -41 110 -5 0 -6
4 -3 10 8 12 45 -10 45 -27 0 -6 5 -15 10 -18 14 -8 121 105 113 119 -23 38
-65 88 -114 136 -71 68 -82 77 -114 92 -14 6 -25 14 -25 18 0 4 -9 10 -20 13
-16 4 -33 -10 -78 -66z"/>
<path d="M2198 1125 c-2 -3 -14 -6 -27 -8 -30 -5 -74 -48 -96 -94 -22 -46 -46
-134 -39 -144 6 -11 -42 -23 -55 -14 -6 3 -11 -1 -11 -9 0 -9 5 -16 10 -16 6
0 10 -7 10 -15 0 -8 5 -15 10 -15 6 0 10 -6 10 -13 0 -7 9 -23 20 -34 26 -29
90 -150 90 -172 0 -30 67 -130 116 -174 99 -88 122 -113 140 -152 11 -22 19
-49 18 -60 -2 -33 -16 -75 -25 -75 -5 0 -9 -5 -9 -12 0 -7 -11 -23 -25 -38
-27 -28 -22 -50 13 -53 12 -1 22 -4 22 -7 0 -3 28 -6 63 -6 34 -1 82 -3 107
-4 50 -2 63 1 102 20 46 22 44 31 -42 185 -68 122 -79 143 -74 147 2 3 0 16
-5 30 -5 14 -12 41 -15 60 -3 19 -10 46 -15 59 -5 13 -9 27 -10 31 -9 46 -45
135 -70 172 -46 70 -59 99 -101 231 -50 156 -59 179 -67 172 -3 -4 -13 -2 -23
3 -10 5 -19 7 -22 5z"/>
</g>
</svg>
