<?xml version="1.0" standalone="no"?>
<!DOCTYPE svg PUBLIC "-//W3C//DTD SVG 20010904//EN"
 "http://www.w3.org/TR/2001/REC-SVG-20010904/DTD/svg10.dtd">
<svg version="1.0" xmlns="http://www.w3.org/2000/svg"
 width="339.000000pt" height="339.000000pt" viewBox="0 0 339.000000 339.000000"
 preserveAspectRatio="xMidYMid meet">
<metadata>
Created by potrace 1.14, written by Peter Selinger 2001-2017
</metadata>
<g transform="translate(0.000000,339.000000) scale(0.100000,-0.100000)"
fill="#000000" stroke="none">
<path d="M2449 2365 c-115 -28 -238 -102 -314 -187 -59 -68 -131 -213 -150
-303 -19 -90 -19 -280 0 -370 22 -107 86 -226 160 -300 153 -154 430 -221 660
-160 76 20 190 74 233 109 l32 28 0 314 0 314 -250 0 -250 0 0 -140 0 -140 25
-6 c14 -3 57 -4 95 -2 l70 4 0 -93 0 -92 -42 -12 c-59 -16 -175 2 -241 39
-115 62 -174 227 -148 415 27 192 135 297 306 297 86 0 135 -16 199 -65 l34
-26 86 104 c47 58 87 109 88 115 4 13 -86 84 -147 115 -89 45 -150 57 -274 56
-64 0 -141 -7 -172 -14z"/>
<path d="M240 2336 c0 -13 13 -97 29 -187 90 -505 191 -1080 191 -1091 0 -5
99 -8 219 -8 l219 0 11 63 c6 34 27 145 46 247 20 102 46 254 60 339 13 85 27
156 29 158 3 3 7 -10 10 -28 35 -211 50 -302 71 -404 13 -66 33 -169 45 -230
11 -60 23 -118 26 -127 5 -16 24 -18 224 -18 220 0 220 0 225 22 3 13 12 66
19 118 15 95 71 434 151 908 30 180 39 255 31 258 -7 3 -81 3 -166 2 l-155 -3
-11 -90 c-57 -447 -82 -654 -100 -825 -9 -83 -13 -70 -54 167 -17 100 -60 310
-94 465 l-62 283 -146 3 -146 3 -11 -48 c-91 -413 -117 -540 -151 -733 -30
-167 -50 -233 -50 -162 0 36 -50 475 -80 707 -11 83 -23 169 -26 193 l-5 42
-175 0 -174 0 0 -24z"/>
</g>
</svg>
